<?xml version="1.0" encoding="UTF-8" standalone="no"?>
<!-- Created with Inkscape (http://www.inkscape.org/) -->
<svg width="210mm" height="210mm" viewBox="0 0 210 210" version="1.1" id="svg5" inkscape:version="1.1 (c68e22c387, 2021-05-23)" sodipodi:docname="FLECHE.svg" xmlns:inkscape="http://www.inkscape.org/namespaces/inkscape" xmlns:sodipodi="http://sodipodi.sourceforge.net/DTD/sodipodi-0.dtd" xmlns="http://www.w3.org/2000/svg" xmlns:svg="http://www.w3.org/2000/svg">
  <sodipodi:namedview id="namedview7" pagecolor="#505050" bordercolor="#eeeeee" borderopacity="1" inkscape:pageshadow="0" inkscape:pageopacity="0" inkscape:pagecheckerboard="0" inkscape:document-units="mm" showgrid="false" height="210mm" inkscape:zoom="0.39187386" inkscape:cx="470.81477" inkscape:cy="269.21929" inkscape:window-width="1280" inkscape:window-height="737" inkscape:window-x="-8" inkscape:window-y="-8" inkscape:window-maximized="1" inkscape:current-layer="layer1"/>
  <defs id="defs2"/>
  <g inkscape:label="Calque 1" inkscape:groupmode="layer" id="layer1">
    <g id="g3324" transform="matrix(1.1730263,0.36891152,-0.36892262,1.172991,-1.5433515,-29.435291)">
      <path id="path1233" style="fill:#00af89;fill-opacity:1;stroke:#00af89;stroke-width:0.619452;stroke-linecap:butt;stroke-linejoin:miter;stroke-miterlimit:4;stroke-dasharray:none;stroke-opacity:1" d="m 122.46771,52.522714 c -6.91496,-0.207662 -15.54733,0.893427 -31.007878,3.834829 -5.553266,1.056527 -14.075701,4.307917 -20.078175,7.659946 -15.48194,8.645782 -26.946744,23.929221 -32.434671,43.238391 -1.577207,5.5494 -1.259322,5.94061 11.485096,14.12946 6.204098,3.9864 11.403381,7.31365 11.553643,7.3942 0.150413,0.0803 2.230698,-2.98148 4.122853,-5.89283 10.855745,-16.7032 25.372926,-27.328161 37.927152,-27.758482 5.86665,-0.201099 14.84269,-0.791781 21.12093,-0.750525 l 6.73288,0.04425 c 0.74716,-12.440378 -3.1673,-27.822299 -2.76266,-41.39732 -0.87344,-0.0609 -1.92892,-0.149699 -3.06771,-0.266156 -0.95305,-0.09745 -1.92348,-0.168512 -2.92763,-0.211502 -0.21967,-0.0094 -0.4408,-0.01756 -0.66386,-0.02425 z" sodipodi:nodetypes="cscssccssccsccc"/>
      <path sodipodi:type="star" style="fill:#00af89;fill-opacity:1;stroke:none;stroke-width:2.46425;paint-order:markers fill stroke" id="path1313" inkscape:flatsided="true" sodipodi:sides="3" sodipodi:cx="443.39005" sodipodi:cy="175.44209" sodipodi:r1="172.73154" sodipodi:r2="86.365768" sodipodi:arg1="0.50082056" sodipodi:arg2="1.5480181" inkscape:rounded="0" inkscape:randomized="0" d="M 594.90823,258.37836 295.80604,265.19255 439.45587,2.7553647 Z" transform="matrix(-0.00762091,0.34014907,-0.29374783,-0.00882472,207.12882,-74.335506)" inkscape:transform-center-x="-12.61963" inkscape:transform-center-y="-0.092856519"/>
    </g>
  </g>
</svg>