<?xml version="1.0" encoding="UTF-8" standalone="no"?>
<svg
   width="752pt"
   height="752pt"
   viewBox="0 0 752 752"
   version="1.1"
   id="svg4"
   sodipodi:docname="mine.svg"
   inkscape:version="1.1.2 (0a00cf5339, 2022-02-04)"
   xmlns:inkscape="http://www.inkscape.org/namespaces/inkscape"
   xmlns:sodipodi="http://sodipodi.sourceforge.net/DTD/sodipodi-0.dtd"
   xmlns="http://www.w3.org/2000/svg"
   xmlns:svg="http://www.w3.org/2000/svg">
  <defs
     id="defs8" />
  <sodipodi:namedview
     id="namedview6"
     pagecolor="#ffffff"
     bordercolor="#666666"
     borderopacity="1.0"
     inkscape:pageshadow="2"
     inkscape:pageopacity="0.0"
     inkscape:pagecheckerboard="0"
     inkscape:document-units="pt"
     showgrid="false"
     inkscape:zoom="0.71708777"
     inkscape:cx="356.99954"
     inkscape:cy="502.0306"
     inkscape:window-width="2256"
     inkscape:window-height="1435"
     inkscape:window-x="0"
     inkscape:window-y="32"
     inkscape:window-maximized="1"
     inkscape:current-layer="svg4" />
  <path
     d="M 728.32805,353.07682 H 628.79123 C 624.44551,300.84171 603.98665,251.24365 570.24249,211.13668 l 22.53362,-22.44646 c 4.27138,-4.13526 6.7043,-9.81803 6.74756,-15.76704 0.0433,-5.949 -2.30899,-11.66901 -6.51856,-15.86656 -4.20944,-4.20324 -9.93562,-6.53094 -15.884,-6.47515 -5.94901,0.0619 -11.61942,2.50709 -15.7485,6.791 l -22.44647,22.44646 C 498.81761,146.07475 449.22113,125.61556 396.98605,121.27016 V 22.180227 C 396.98605,9.9292745 387.05662,0 374.81216,0 362.56123,0 352.63194,9.9294333 352.63194,22.180227 v 99.443343 c -52.0671,4.45095 -101.47339,24.93453 -141.40762,58.64225 l -22.44646,-22.44645 c -8.68525,-8.41901 -22.52094,-8.31997 -31.08812,0.22285 -8.5675,8.54895 -8.7038,22.37831 -0.31572,31.09446 l 22.53363,22.53363 C 146.3679,251.66 126.03234,301.05998 121.71705,353.07796 H 22.180224 C 9.9292721,353.07796 0,363.00739 0,375.25183 c 0,12.25096 9.9294317,22.18024 22.180224,22.18024 h 99.536826 c 4.53763,52.03066 24.9789,101.39893 58.54874,141.40764 l -22.44646,22.44646 c -8.59237,8.7038 -8.59237,22.69369 0,31.40349 8.68526,8.63566 22.71905,8.63566 31.40349,0 L 211.6693,570.2432 c 40.00869,33.5651 89.37696,54.01162 141.40762,58.54876 v 99.53684 c 0,12.25094 9.92943,22.18023 22.17388,22.18023 12.25094,0 22.18021,-9.92943 22.18021,-22.18023 v -99.53684 c 52.06711,-4.44475 101.47342,-24.93451 141.40764,-58.63591 l 22.5336,22.53361 c 4.15999,4.15999 9.81186,6.49385 15.69891,6.47516 5.8685,0.037 11.49564,-2.30281 15.61854,-6.47516 4.16617,-4.16615 6.51239,-9.81184 6.51239,-15.70524 0,-5.89338 -2.34622,-11.5389 -6.51239,-15.69887 l -22.44645,-22.44648 c 33.70771,-39.93422 54.19066,-89.34053 58.6359,-141.40764 h 99.44968 c 12.25093,0 22.1802,-9.92944 22.1802,-22.18022 0,-12.24477 -9.92942,-22.1739 -22.1802,-22.1739 z M 349.08051,317.59256 v -0.006 c -5.45377,14.52283 -17.04879,25.88854 -31.66972,31.05167 -5.6766,2.1296 -11.68139,3.24384 -17.74132,3.28092 -14.12048,0 -27.65873,-5.60244 -37.63792,-15.5875 -9.98523,-9.97903 -15.59366,-23.52409 -15.59366,-37.63791 0.0496,-6.06043 1.15761,-12.06522 3.28709,-17.74134 4.77279,-14.81998 15.89034,-26.74906 30.34011,-32.55561 6.09149,-2.43291 12.59754,-3.67092 19.15968,-3.64002 14.11414,0 27.65872,5.60862 37.63792,15.58748 9.98522,9.98524 15.58747,23.52411 15.58747,37.63794 0.18574,6.72285 -0.95951,13.42096 -3.36758,19.69849 z"
     id="path2"
     style="stroke-width:1.58475" />
</svg>
