<?xml version="1.0" encoding="UTF-8" standalone="no"?>
<!-- Created with Inkscape (http://www.inkscape.org/) -->
<svg width="32in" height="21.999512in" viewBox="0 0 812.80001 558.78761" version="1.1" id="svg3626" inkscape:version="1.1.1 (c3084ef, 2021-09-22)" sodipodi:docname="SHSM_down_arrow_for_guide_signs.svg" xmlns:inkscape="http://www.inkscape.org/namespaces/inkscape" xmlns:sodipodi="http://sodipodi.sourceforge.net/DTD/sodipodi-0.dtd" xmlns="http://www.w3.org/2000/svg" xmlns:svg="http://www.w3.org/2000/svg">
  <sodipodi:namedview id="namedview3628" pagecolor="#ffffff" bordercolor="#666666" borderopacity="1.0" inkscape:pageshadow="2" inkscape:pageopacity="0.0" inkscape:pagecheckerboard="0" inkscape:document-units="in" showgrid="false" units="in" inkscape:snap-tangential="true" inkscape:snap-bbox="true" inkscape:bbox-paths="true" inkscape:bbox-nodes="true" inkscape:snap-bbox-edge-midpoints="true" inkscape:snap-bbox-midpoints="true" inkscape:object-paths="true" inkscape:snap-intersection-paths="true" inkscape:snap-smooth-nodes="true" inkscape:snap-midpoints="true" fit-margin-top="0" fit-margin-left="0" fit-margin-right="0" fit-margin-bottom="0" inkscape:zoom="0.27018233" inkscape:cx="1535.9998" inkscape:cy="1056.6938" inkscape:window-width="1393" inkscape:window-height="855" inkscape:window-x="0" inkscape:window-y="23" inkscape:window-maximized="0" inkscape:current-layer="layer1"/>
  <defs id="defs3623"/>
  <g inkscape:label="Lớp 1" inkscape:groupmode="layer" id="layer1" transform="translate(-5.8632079,110.99789)">
    <g id="g5167" style="fill:#000000">
      <path id="rect3709" style="fill:#000000;stroke-width:3.77953" d="m 118.16016,156.43359 a 95.999998,95.999998 0 0 0 -96.000004,96 95.999998,95.999998 0 0 0 31.408203,70.97852 l -0.01563,0.0273 L 1558.1602,1692.4336 3062.7676,323.43945 l -0.016,-0.0273 a 95.999998,95.999998 0 0 0 31.4082,-70.97852 95.999998,95.999998 0 0 0 -96,-96 95.999998,95.999998 0 0 0 -23.9649,3.10352 l -0.031,-0.0566 -1103.9883,285 H 1558.16 1246.1756 l -1104.01955,-285 -0.002,0.004 a 95.999998,95.999998 0 0 0 -23.99414,-3.05079 z" transform="scale(0.26458333)"/>
      <rect style="fill:#000000;stroke:none;stroke-width:1" id="rect5083" width="165.10001" height="228.60001" x="329.71323" y="-110.99789"/>
    </g>
  </g>
</svg>